<svg xmlns="http://www.w3.org/2000/svg" height="2e2mm" width="2e2mm" version="1.1" viewBox="0 0 204.08615 204.08615"><g style="display:none" transform="translate(-5.3 -4.7)"><circle r="97" style="fill:#f2f2f2;paint-order:markers stroke fill" cx="99" cy="1.1e2"/></g><g transform="translate(-5.3 -4.7)"><circle r="97" style="paint-order:markers stroke fill;stroke-opacity:0;fill:none" cx="1.1e2" cy="1.1e2"/><circle style="stroke-linejoin:round;paint-order:normal;stroke:#00000a;stroke-width:11;fill:#f2f2f2" cx="1.1e2" cy="1.1e2" r="97"/></g><g transform="translate(-5.3 -4.7)"><path style="stroke-width:.35" d="m48 1.6e2c0-10 0.049-10-2.3-9.6-1.8 0.53-4.5 1.2-6.4 1.5-0.97 0.17-2.6 0.47-3.5 0.68-0.97 0.21-2.7 0.49-3.9 0.63s-2.6 0.55-3.1 0.92c-0.77 0.52-1.1 0.58-1.6 0.29-0.38-0.23-0.81-0.26-1.1-0.069-0.27 0.17-1.1 0.32-1.8 0.32-1.2 0.005-1.3-0.092-1.3-0.88 0-0.81 0.13-0.88 1.5-0.88 1.8 0 2.8-0.82 2.3-1.9-0.16-0.39-0.3-1.8-0.31-3-0.029-2.7-0.45-3.3-1.8-2.6-1.3 0.73-1.8 0.62-1.8-0.46 0.0048-0.94 0.18-1 6.1-3 3.3-1.1 7.3-2.5 8.7-3.1 1.5-0.58 3.9-1.4 5.4-1.9 1.5-0.45 3.2-1.2 3.6-1.6 0.76-0.7 0.84-1.1 0.84-3.6 0-1.6-0.19-3.2-0.44-3.6-0.24-0.42-0.56-2.8-0.71-5.2s-0.42-6.3-0.61-8.6c-0.33-4-0.6-7.4-1.4-18-0.2-2.5-0.44-6.3-0.53-8.5-0.097-2.1-0.33-4.2-0.53-4.6-0.19-0.39-0.41-2.3-0.49-4.2-0.15-3.9-0.54-8.9-0.75-9.6-0.099-0.32-0.76-0.16-2.4 0.58-1.2 0.56-3.7 1.7-5.6 2.5-1.8 0.82-5.1 2.3-7.3 3.4l-4 1.9v-0.98c0-0.89 0.29-1.1 3.1-2.4l10-4.7c0.57 0.001 2.7-1.1 2.7-1.5 0-0.41-3-0.4-3.8 0.005-0.33 0.17-3.2 0.37-6.4 0.44-5.3 0.11-5.8 0.07-5.9-0.49-0.11-0.55 0.2-0.62 2.7-0.62 1.6 0 2.9-0.16 3-0.35 0.13-0.22 2.9-0.35 7.2-0.35 6.2 0 7 0.068 7.5 0.62 0.42 0.46 0.61 1.7 0.75 4.7 0.1 2.2 0.35 6 0.55 8.5 0.2 2.4 0.48 6.5 0.63 9s0.43 4.8 0.62 5.1c0.19 0.29 0.47 2.4 0.62 4.8 0.15 2.3 0.42 6.2 0.61 8.6s0.51 6.5 0.7 9c0.2 2.5 0.52 6.5 0.71 8.8 0.84 10 0.84 10-0.065 11-0.45 0.29-1.2 0.65-1.7 0.79-0.49 0.14-1.5 0.54-2.3 0.9-0.78 0.35-2 0.83-2.8 1.1-0.78 0.23-1.7 0.54-2.1 0.7-0.39 0.16-2.3 0.79-4.2 1.4s-4.5 1.5-5.6 2.1l-2.1 0.95 0.24 1.6c0.13 0.88 0.29 2.2 0.34 3 0.055 0.78 0.12 1.7 0.15 2.1 0.053 0.72 0.55 0.7 4.8-0.16 0.97-0.2 2.6-0.52 3.5-0.71 0.97-0.2 2.7-0.5 3.9-0.67s3-0.49 4.1-0.7c3.8-0.76 4.2-0.79 4.8-0.35 0.29 0.24 0.52 0.81 0.52 1.3 0 1.2 0.83 1.5 5.4 1.5 2.3 0.023 4.8 0.21 5.5 0.42 0.69 0.21 1.7 0.52 2.3 0.68 1.4 0.41 1.9 0.14 2.1-1.1 0.15-0.74 0.68-1.3 1.8-2.1 1.5-0.95 1.9-1 4.5-0.94 2.7 0.088 2.9 0.13 4 1.3l1.1 1.2 3.9-0.23c2.1-0.13 4.3-0.4 4.9-0.61 0.58-0.21 1.8-0.56 2.6-0.78 3-0.75 8.3-2.5 10-3.4 7.3-3.2 10-4.6 14-6.4 2.3-1.3 6.5-4 7.2-4.6 0.21-0.17 0.76-0.52 1.2-0.77 0.47-0.25 0.94-0.57 1-0.7 0.097-0.14 0.9-0.63 1.8-1.1 0.88-0.47 2.2-1.4 3-2l1.4-1.1-0.97-0.37c-0.53-0.2-1.1-0.37-1.3-0.37-0.49 0-5.8-2.7-6.4-3.2-0.27-0.25-1.3-1-2.2-1.8-0.94-0.71-2.5-2.2-3.4-3.3-2.1-2.4-5.3-8.6-5.5-11-0.1-0.91-0.32-1.7-0.49-1.8s-0.31-1.7-0.31-3.6c0-3.3-0.046-3.5-0.93-4.3-0.51-0.47-1.4-1.8-1.9-3-0.95-2.1-0.97-2.2-0.48-3.4 0.29-0.69 0.52-1.6 0.52-2 0-2.3 2.3-4.1 4.8-3.8 1.5 0.2 1.5 0.18 2.6-1.5 0.62-0.95 1.6-2.3 2.2-3 0.61-0.69 1.3-1.8 1.5-2.5 0.43-1.3 0.2-1.9-1.1-3.3-0.65-0.67-0.2-1.5 0.7-1.3 1.8 0.41 1.8 0.37 2-1.6 0.13-1.1 0.35-2.3 0.5-2.6 0.37-0.97 2.3-3 2.9-3 0.54 0 0.62 1.3 0.11 1.6-0.19 0.12-0.35 0.57-0.34 0.99 0.01 0.71 0.073 0.69 0.78-0.29 1.1-1.6 3.1-3.4 3.6-3.4 0.72 0 0.62 0.96-0.25 2.4-0.44 0.7-0.62 1.3-0.44 1.5 0.44 0.44 0.95 0.025 2-1.7 0.84-1.3 2.4-2.6 3.4-2.6 0.19 0 0.41 0.36 0.48 0.79 0.13 0.76 0.15 0.77 0.43 0.088 0.16-0.39 0.66-1.2 1.1-1.8 0.45-0.6 0.92-1.5 1-2 0.26-1 0.51-1.1 1.1-0.52 0.22 0.22 0.91 0.46 1.5 0.53 0.94 0.1 1.4-0.15 2.9-1.6 1.7-1.6 3.2-2.5 3.6-2.1 0.24 0.24-0.82 1.9-2.1 3.4l-1.1 1.2 1.2-0.75c0.68-0.41 1.9-1.1 2.6-1.5 0.78-0.42 1.6-0.96 1.9-1.2 0.29-0.25 1.5-0.95 2.7-1.6 1.2-0.62 2.4-1.4 2.6-1.6 0.49-0.59 1.7-0.68 1.7-0.12 0 0.21-0.56 1-1.2 1.8-2.3 2.7-1.3 3 1.2 0.46 0.67-0.7 1.4-1.3 1.6-1.3 0.22 0 1.2-0.55 2.1-1.2 1.3-0.93 1.8-1.1 2.2-0.83 0.38 0.31-0.046 0.92-2.1 3-2 2.1-2.4 2.7-2 2.9 0.41 0.26 0.42 0.44 0.067 1-0.41 0.66-0.38 0.68 0.46 0.37 0.49-0.19 1.6-0.73 2.4-1.2 1.4-0.77 1.9-0.85 4.8-0.78 2.3 0.06 3.5-0.059 4.1-0.41 0.89-0.56 2-0.3 1.8 0.4-0.14 0.37 0.1 0.39 1.3 0.075 0.81-0.21 1.8-0.6 2.3-0.85 0.6-0.33 0.94-0.36 1.2-0.083 0.45 0.45-0.86 2-2 2.4-1.1 0.35-4.1 2.3-4.1 2.6 0 0.17 0.32 0.48 0.7 0.69 0.53 0.28 0.96 0.24 1.7-0.16 0.57-0.3 1.8-0.54 2.7-0.54 0.92 0 2.2-0.14 2.8-0.32 5-1.5 6.1-1.8 6.7-1.9 0.39-0.093 1.2-0.32 1.8-0.51s1.3-0.21 1.6-0.05c0.74 0.46-0.62 1.7-1.8 1.7-0.55 0-1.8 0.32-2.9 0.71-1 0.39-2.3 0.71-2.9 0.72-0.96 0.01-1 0.057-0.44 0.48 0.75 0.57 0.82 1.6 0.1 1.6-1 0-5.8 2.5-5.8 3 0 0.29 0.12 0.45 0.26 0.37 0.15-0.086 1.1-0.26 2.2-0.38 1-0.12 2.1-0.34 2.3-0.48 0.36-0.23 5.1-0.67 9.6-0.88 1.7-0.082 1.8-0.071 1.8 0.97s-0.083 1.1-1.6 1.2c-0.87 0.061-1.7 0.26-1.9 0.44-0.18 0.18-1 0.33-1.9 0.33-1.3 0-1.5 0.1-1.4 0.62 0.082 0.4 0.37 0.57 0.82 0.48 0.95-0.18 2.7-0.13 5.5 0.15 1.9 0.19 2.8 0.1 4.1-0.4 2.1-0.76 3.7-0.43 3.8 0.81 0.13 0.89-1.4 1.8-3.6 2.3-0.78 0.15-2.1 0.45-3 0.66-0.87 0.22-2.1 0.49-2.6 0.6-0.58 0.11-1.4 0.5-1.9 0.86-0.46 0.36-1.4 0.66-2 0.66-1.1 0-2.3 0.74-2.3 1.4 0 0.19 0.61 0.23 1.4 0.1 0.89-0.14 1.7-0.064 2.2 0.21 0.62 0.33 1 0.34 1.6 0.032 0.92-0.49 1.4-0.22 1.4 0.73 0 0.62 0.16 0.68 1.1 0.49 0.63-0.12 1.6-0.4 2.1-0.61 0.84-0.33 1.1-0.26 1.9 0.44 0.48 0.45 0.87 0.95 0.87 1.1 0 0.34-3 1.8-5.2 2.4-1.8 0.55-2.5 0.94-2.1 1.3 0.15 0.15 0.72-0.004 1.3-0.33 0.56-0.33 1.4-0.6 1.9-0.6 0.77 0 0.92 0.16 0.92 1 0 1.2-0.96 2.2-2.1 2.2-0.43 0-1.2 0.44-1.7 0.97l-1.8 1.9c-1 1.1-0.68 1.6 0.74 1 0.51-0.2 1.1-0.36 1.2-0.36 0.5 0 0.73 1.1 0.27 1.2-3.3 1.1-4.5 1.7-4.7 2.2-0.11 0.34-0.69 1.1-1.3 1.8-1 1-1.1 1.2-0.57 1.7 0.92 1 1.7 2.8 1.5 3.4-0.12 0.3-0.63 0.64-1.1 0.74-2.8 0.56-5.1 1.9-3.2 1.8 0.42-0.016 0.93 0.24 1.1 0.58 0.31 0.48 0.25 0.72-0.31 1.1-0.38 0.29-1.1 0.63-1.6 0.74-1.7 0.39-1.8 0.48-1.8 1.5 0 0.99 0.092 1.1 1.3 1.1 1.5 0 1.5 0.69-0.051 1.1-0.57 0.17-2.3 0.88-3.8 1.6-2 0.96-2.6 1.4-2.2 1.6 0.3 0.17 0.45 0.45 0.33 0.64-0.45 0.73-3.2 1.7-4.7 1.7s-1.8 0.16-3.7 2c-2.8 2.7-6.6 5.6-8.2 6.4-0.71 0.32-1.8 0.91-2.3 1.3-0.58 0.39-2.1 1.1-3.3 1.5-2 0.69-3 0.79-7.7 0.79h-5.4l-1.2 1.1c-1.9 1.7-5.1 6.2-8.6 13-1.9 3.3-8.8 11-8.8 11s-7.2 8.5-8.8 13c-0.75-0.021-2.8 0.19-2.5-0.61 2.2-6.5 9.1-14 9.1-14s7.3-6.4 9-10l-9.1 6.2-9.5 5.8s-4.5 1.7-5.5 2.4l-0.82 0.54 0.8 1.5c0.44 0.85 1.1 2 1.5 2.6 0.39 0.64 0.74 2.1 0.88 3.6 0.22 2.6 0.22 2.6-0.66 2.6-0.8 0-0.88-0.14-0.88-1.4 0-0.79-0.16-1.7-0.35-2.1-0.29-0.54-1.8-1.3-3.4-1.6-0.19-0.046-1.2-0.41-2.3-0.81s-2.3-0.73-2.7-0.73c-0.44 0-1.1-0.14-1.4-0.32-0.34-0.17-1.8-0.66-3.3-1.1-1.5-0.42-3.6-1.1-4.8-1.5-1.2-0.39-3.1-0.92-4.2-1.2-1.2-0.26-3.1-0.83-4.3-1.3-3.3-1.2-3.4-1.2-3.2 6.1l0.12 5.9-0.96-0.00035-0.96-0.00035-0.096-6.6-0.096-6.6-6.7-0.1c-3.7-0.055-7.1-0.012-7.5 0.095-0.79 0.19-0.79 0.25-0.79 6.7v6.5h-2.2zm42 1.7c0-0.19-0.31-0.5-0.68-0.71-0.85-0.46-1.1-0.46-1.1-0.012 0 0.19 0.24 0.35 0.53 0.35s0.53 0.16 0.53 0.35 0.16 0.35 0.35 0.35 0.35-0.15 0.35-0.34zm-5.3-1.9c0-0.55-1.3-1.1-1.7-0.73-0.24 0.24 0.9 1.2 1.4 1.2 0.16 0 0.29-0.23 0.29-0.51zm-4.2-1.4c0-0.55-2.4-1.5-2.8-1.1-0.34 0.34 1.3 1.6 2.1 1.6 0.37 0 0.67-0.23 0.67-0.5zm6.3-1.5c0.4-0.51 0.65-1 0.55-1.1-0.22-0.22-1.9 1.3-1.9 1.8 0 0.58 0.67 0.27 1.4-0.64zm-12 0.13c0-0.59-1.9-1.3-2.5-0.93-0.34 0.21-0.24 0.37 0.4 0.61l1.4 0.52 0.62 0.23c0.049 0.015 0.088-0.18 0.088-0.42zm9.2-1.6c0.87-0.92 2-1.9 2.5-2.2 0.86-0.45 1-0.39 2.8 1 1 0.83 2.4 1.7 3 2 1.2 0.51 1.1 0.55 5.3-1.3 0.83-0.37 1.9-0.67 2.3-0.67 2.1-0.014 9.7-5.4 9.7-5.4s7.8-5 9.3-6.9c0.58-0.78 2.1-2.5 2.8-3.2 1.2-1.1 3.5-4.3 3.5-4.7 0-0.34-1.2 0.24-2.8 1.3-4.9 3.4-7.5 5.1-11 6.9-0.87 0.46-2 1.1-2.4 1.5-0.46 0.36-1.1 0.65-1.3 0.65-0.26 0-1.8 0.62-3.4 1.4-5.3 2.5-7.8 3.5-10 4.2-8.3 2.4-9.6 2.7-14 3.1-1.7 0.14-2.2 0.32-2.4 0.81-0.33 1 0.17 1.8 1.2 1.8 0.51 0.004 1.3 0.32 1.8 0.7 0.49 0.38 1 0.69 1.2 0.7 0.2 0.004 1.1-0.75 2-1.7zm-14 0c-1.3-0.57-3.2-0.71-2.7-0.2 0.42 0.4 1.4 0.65 2.8 0.69l1.1 0.027-1.2-0.52zm-7.5-1.1c0-0.076-0.24-0.14-0.53-0.14s-0.53 0.15-0.53 0.34 0.24 0.25 0.53 0.14 0.53-0.27 0.53-0.34zm12-0.05c-0.45-0.34-1.1-0.9-1.5-1.2-1-0.95-1.7-0.78-1.7 0.42 0 0.94 0.13 1.1 1.3 1.2 2.9 0.3 2.8 0.32 1.9-0.36zm-22-0.26c-0.47-0.57-2.3-0.73-2.6-0.23-0.32 0.52 0.21 0.75 1.7 0.75 1.2 0 1.3-0.074 0.96-0.53zm6.7 0c0.38-0.46 0.096-0.53-2.3-0.53s-2.7 0.066-2.3 0.53c0.29 0.35 1.1 0.53 2.3 0.53s2-0.18 2.3-0.53zm9.7-1.6c0.13-0.4 0.15-0.81 0.058-0.91-0.28-0.28-1.7 0.71-1.7 1.2 0 0.74 1.3 0.5 1.6-0.29zm69-24c0.12-0.19 1.2-0.35 2.3-0.35 1.4 0 2.6-0.23 3.5-0.71 0.76-0.39 1.5-0.71 1.7-0.71 0.19 0 1.6-0.79 3.1-1.8 1.5-0.97 3.1-1.9 3.5-2.1 0.39-0.17 2.3-2 4.3-4 3.3-3.3 3.6-3.8 3.8-5.3 0.14-0.93 0.16-1.8 0.04-1.9-0.12-0.12-0.63 0.21-1.1 0.72-1.8 1.8-2.3 0.94-0.98-1.6 1-2.1 1.4-4.6 0.63-4.3-0.26 0.099-1.1-0.31-1.8-0.91-1.1-0.91-1.6-1.1-3.1-1.1-1.7 0-1.9 0.1-2.8 1.2-1.5 2-2.3 2.6-5 4-3.5 1.8-6.3 2.2-11 1.6-1.9-0.26-2.9-0.76-4.9-2.6s-2.3-2.7-2.3-5.9c0-3.5-0.49-4.3-2.6-4.3-0.93 0-1.7 0.24-2.2 0.66-0.4 0.36-1.6 1.3-2.7 2l-1.9 1.4h-10l0.14 2.6c0.21 3.8 2.7 10 5.1 13 0.66 0.73 1.2 1.5 1.2 1.6 0 0.18 0.46 0.61 1 0.97 0.56 0.36 1.9 1.3 2.9 2.1 2.2 1.7 5.9 3.7 7.7 4 0.68 0.15 1.9 0.45 2.6 0.68 0.78 0.22 2.2 0.52 3.1 0.67 0.92 0.14 1.8 0.37 1.9 0.5 0.37 0.37 3.2 0.28 3.5-0.11zm20-27c0.6-1.1 0.85-3.9 0.39-4.3-0.13-0.13-0.42 0.03-0.65 0.35-0.49 0.67-1.2 0.35-1.2-0.52 0.006-0.33 0.24-0.9 0.53-1.3 0.77-1 0.64-1.8-0.54-3.1s-1.2-1.6-0.65-3.3c0.36-1 0.3-1.3-0.54-2.8-0.52-0.89-1.1-1.6-1.2-1.6-0.15 0-0.63 0.49-1.1 1.1-0.44 0.6-0.9 0.99-1 0.88-0.12-0.12-0.17-1.1-0.12-2.1 0.11-2.5-0.17-3.3-1.2-3.7-0.47-0.18-1-0.7-1.2-1.2-0.29-0.76-0.49-0.83-2-0.71-1.6 0.13-1.8 0.049-3.1-1.3-1.7-1.7-2.1-1.8-1.8-0.36 0.29 1.3-0.3 1.4-1.1 0.18-0.3-0.49-0.78-1.3-1.1-1.8-0.46-0.76-0.64-0.82-1.4-0.49-0.7 0.32-1 0.26-1.9-0.36-0.58-0.41-1.5-0.75-2-0.75-1 0-1.6 0.14-5.6 1.4-2.3 0.74-2.9 1.1-5.4 3-0.74 0.58-1.1 0.68-1.6 0.41-0.95-0.53-4.4 1.7-5.3 3.4-0.7 1.4-1.1 1.6-1.4 0.71-0.18-0.46-0.32-0.49-0.74-0.13-0.65 0.54-3.3 4.5-3.3 5 0 0.17 0.4 0.31 0.89 0.31 1.5 0 6.1 1.7 9.5 3.5 3 1.6 3.2 1.7 3.1 2.8-0.037 0.86 0.15 1.2 0.81 1.5 1.2 0.54 2.1 0.49 2.4-0.12 0.11-0.28 0.71-0.78 1.3-1.1 0.88-0.46 1.3-0.5 1.8-0.19 0.35 0.22 1.7 0.4 3 0.4 1.5 0 3.1 0.26 4.3 0.71 1.1 0.39 2.5 0.71 3.3 0.71 0.74 0 1.7 0.19 2.1 0.42 0.42 0.23 1.7 0.53 2.8 0.67 2.7 0.32 4.5 1.3 5.3 2.8 0.64 1.3 2.1 2 4 2.1 0.83 0.031 1.2-0.19 1.7-1zm-11-0.3c0-0.42-0.69-0.86-0.94-0.61s0.19 0.94 0.61 0.94c0.18 0 0.33-0.15 0.33-0.33zm-26-7c0-0.37-0.76-1.1-1.1-1.1-0.46 0-0.32 0.98 0.16 1.2 0.68 0.27 0.97 0.26 0.97-0.049zm40-32c0.37-0.42 0.51-0.68 0.32-0.58s-0.64 0.29-0.99 0.41c-0.35 0.13-0.54 0.39-0.42 0.58 0.3 0.48 0.32 0.47 1.1-0.41zm5.7-1.5c1.3-0.75 2-1.6 1.4-1.6-0.25 0-3.4 2.1-3.4 2.3 0 0.32 0.52 0.12 2-0.75z"/></g></svg>
